#!OML:ASF H:\BreakDance\Project 1\Capture day 1\Session 1\Male.ASF
:FULLY-SPECIFIED
:DEGREES
339
root 21.6324 5.8893 -14.9604 -151.903 149.679 -58.5762
lowerback -11.2004 -9.80849 -0.747479
upperback -5.20666 -12.5129 10.892
thorax 3.34559 -5.98006 10.0914
lowerneck -16.1535 -7.09532 -8.00436
upperneck 3.51551 -9.51939 22.2472
head 5.37637 -3.3856 7.50587
rclavicle 1.54257e-013 -6.04305e-014
rhumerus -9.91572 -52.1079 -71.0621
rradius 127.671
rwrist -16.8673
rhand -35.6209 510.292
rfingers 7.12502
rthumb -8.74401 180.091
lclavicle 1.54257e-013 -6.04305e-014
lhumerus 32.3449 5.89724 30.0669
lradius 86.976
lwrist 9.94918
lhand -37.0726 -424.132
lfingers 7.12502
lthumb -10.1447 -34.3965
rfemur -24.2564 24.7145 -3.28778
rtibia 125.261
rfoot -8.1159 0.675374
rtoes 34.0782
lfemur 21.1118 25.9416 9.24951
ltibia 103.459
lfoot 2.03442 -8.95624
ltoes -31.5027
340
root 21.6208 5.89277 -14.9425 -151.672 149.531 -58.4059
lowerback -11.2738 -9.85324 -0.725853
upperback -5.34673 -12.5555 10.9142
thorax 3.24454 -5.99376 10.0956
lowerneck -16.1195 -7.21784 -8.42583
upperneck 3.67066 -9.70574 23.0382
head 5.53053 -3.42562 7.83195
rclavicle 1.43125e-014 4.77083e-014
rhumerus -10.2511 -52.2989 -70.646
rradius 127.596
rwrist -16.6723
rhand -36.211 510.654
rfingers 7.12502
rthumb -9.31344 180.428
lclavicle 1.43125e-014 4.77083e-014
lhumerus 31.7003 7.19763 30.1131
lradius 88.1231
lwrist 10.2028
lhand -37.1824 -424.66
lfingers 7.12502
lthumb -10.2506 -34.9298
rfemur -24.2127 24.4559 -3.34135
rtibia 125.116
rfoot -8.11236 0.727475
rtoes 34.1428
lfemur 21.0934 26.2979 9.89253
ltibia 104.183
lfoot 1.36479 -9.78804
ltoes -30.4912
341
root 21.6106 5.89439 -14.9241 -151.407 149.358 -58.1565
lowerback -11.3644 -9.87801 -0.74727
upperback -5.48832 -12.5707 10.8905
thorax 3.14437 -5.995 10.0759
lowerneck -15.9888 -7.36279 -8.72346
upperneck 3.69687 -9.90996 23.677
head 5.61707 -3.49248 8.08323
rclavicle 6.36111e-014 3.81667e-014
rhumerus -10.6936 -52.6126 -70.1164
rradius 127.574
rwrist -16.469
rhand -36.8675 511.01
rfingers 7.12502
rthumb -9.94686 180.755
lclavicle 6.36111e-014 3.81667e-014
lhumerus 31.2144 8.38197 30.1706
lradius 89.1662
lwrist 10.3817
lhand -37.2624 -425.239
lfingers 7.12502
lthumb -10.3277 -35.5126
rfemur -24.1225 24.1831 -3.41605
rtibia 124.981
rfoot -8.10875 0.810274
rtoes 33.9265
lfemur 21.1745 26.6741 10.6064
ltibia 105.025
lfoot 0.65012 -10.5201
ltoes -29.7757
342
root 21.6025 5.89311 -14.9058 -151.141 149.164 -57.8496
lowerback -11.4586 -9.86183 -0.787112
upperback -5.60227 -12.5366 10.8019
thorax 3.05494 -5.97387 10.0023
lowerneck -15.7892 -7.51968 -8.85657
upperneck 3.5176 -10.1008 24.108
head 5.60423 -3.57766 8.23267
rclavicle 4.6118e-014 -3.49861e-014
rhumerus -11.235 -53.1161 -69.4989
rradius 127.618
rwrist -16.2975
rhand -37.5882 511.457
rfingers 7.12502
rthumb -10.6421 181.168
lclavicle 4.6118e-014 -3.49861e-014
lhumerus 30.9333 9.44718 30.2355
lradius 90.1223
lwrist 10.5296
lhand -37.2989 -425.848
lfingers 7.12502
lthumb -10.363 -36.1233
rfemur -23.9713 23.9152 -3.47184
rtibia 124.863
rfoot -8.1037 0.905626
rtoes 33.3198
lfemur 21.381 27.0411 11.4252
ltibia 105.976
lfoot -0.118005 -11.2366
ltoes -29.6197
343
root 21.5986 5.88711 -14.8893 -150.885 148.953 -57.4833
lowerback -11.5301 -9.8153 -0.864866
upperback -5.67903 -12.4655 10.663
thorax 2.98246 -5.93694 9.90241
lowerneck -15.5908 -7.67714 -8.86078
upperneck 3.17617 -10.2642 24.3649
head 5.51784 -3.66752 8.2989
rclavicle 1.27222e-014 -6.36111e-015
rhumerus -11.8228 -53.7815 -68.8315
rradius 127.719
rwrist -16.1676
rhand -38.345 511.998
rfingers 7.12502
rthumb -11.3721 181.67
lclavicle 1.27222e-014 -6.36111e-015
lhumerus 30.8031 10.421 30.298
lradius 91.0448
lwrist 10.715
lhand -37.2631 -426.439
lfingers 7.12502
lthumb -10.3285 -36.7123
rfemur -23.7593 23.6599 -3.50096
rtibia 124.779
rfoot -8.10599 0.993658
rtoes 32.3586
lfemur 21.6875 27.3671 12.3322
ltibia 107.031
lfoot -0.948044 -11.96
ltoes -29.9463
344
root 21.5956 5.88075 -14.872 -150.643 148.702 -57.1269
lowerback -11.5945 -9.75964 -0.920626
upperback -5.72729 -12.3869 10.5266
thorax 2.93127 -5.89697 9.79377
lowerneck -15.4451 -7.81917 -8.80169
upperneck 2.70664 -10.3744 24.4626
head 5.37659 -3.74656 8.30243
rclavicle 1.59028e-014 -8.5875e-014
rhumerus -12.3848 -54.5252 -68.1644
rradius 127.852
rwrist -16.0756
rhand -39.0692 512.518
rfingers 7.12502
rthumb -12.0704 182.15
lclavicle 1.59028e-014 -8.5875e-014
lhumerus 30.7221 11.3491 30.3454
lradius 91.9927
lwrist 11.0068
lhand -37.1604 -426.922
lfingers 7.12502
lthumb -10.2293 -37.1904
rfemur -23.4779 23.3982 -3.43462
rtibia 124.691
rfoot -8.11739 1.03441
rtoes 31.175
lfemur 22.0592 27.652 13.344
ltibia 108.12
lfoot -1.83143 -12.6441
ltoes -30.3172
345
root 21.5953 5.87275 -14.8553 -150.413 148.406 -56.7722
lowerback -11.6427 -9.7226 -0.981485
upperback -5.75294 -12.3332 10.4193
thorax 2.90815 -5.86984 9.71537
lowerneck -15.3568 -7.95034 -8.69551
upperneck 2.13013 -10.4383 24.3652
head 5.1862 -3.81868 8.23396
rclavicle 6.99722e-014 -4.45278e-014
rhumerus -12.8671 -55.2619 -67.5357
rradius 127.994
rwrist -16.0078
rhand -39.6975 512.915
rfingers 7.12502
rthumb -12.6762 182.51
lclavicle 6.99722e-014 -4.45278e-014
lhumerus 30.6188 12.2539 30.3779
lradius 92.9907
lwrist 11.4107
lhand -37.1481 -427.18
lfingers 7.12502
lthumb -10.2175 -37.4478
rfemur -23.1431 23.1163 -3.28383
rtibia 124.615
rfoot -8.14492 1.00974
rtoes 29.969
lfemur 22.4526 27.8718 14.4185
ltibia 109.215
lfoot -2.79005 -13.2183
ltoes -30.3157
346
root 21.5977 5.86421 -14.8373 -150.221 148.062 -56.452
lowerback -11.6721 -9.72364 -1.0629
upperback -5.76182 -12.3272 10.3727
thorax 2.91985 -5.8665 9.70628
lowerneck -15.2652 -8.06533 -8.53847
upperneck 1.38679 -10.4376 23.9934
head 4.90838 -3.88664 8.07021
rclavicle 4.92986e-014 -9.54166e-015
rhumerus -13.2504 -55.9142 -66.9511
rradius 128.129
rwrist -15.9412
rhand -40.245 513.142
rfingers 7.12502
rthumb -13.2039 182.704
lclavicle 4.92986e-014 -9.54166e-015
lhumerus 30.4551 13.137 30.3981
lradius 94.0265
lwrist 11.8784
lhand -37.0893 -427.302
lfingers 7.12502
lthumb -10.1608 -37.5677
rfemur -22.7462 22.8116 -3.01222
rtibia 124.547
rfoot -8.1844 0.895678
rtoes 28.9749
lfemur 22.8935 28.0118 15.5705
ltibia 110.244
lfoot -3.88461 -13.6258
ltoes -29.8424
347
root 21.6004 5.85626 -14.818 -150.021 147.697 -56.1724
lowerback -11.7434 -9.75102 -1.13599
upperback -5.77801 -12.355 10.3801
thorax 2.96329 -5.87908 9.73929
lowerneck -15.1578 -8.16168 -8.37009
upperneck 0.553206 -10.3921 23.4432
head 4.57877 -3.94942 7.8537
rclavicle 5.40694e-014 -4.77083e-014
rhumerus -13.5913 -56.4654 -66.3678
rradius 128.253
rwrist -15.8643
rhand -40.7018 513.174
rfingers 7.12502
rthumb -13.6442 182.707
lclavicle 5.40694e-014 -4.77083e-014
lhumerus 30.2244 13.9772 30.396
lradius 95.0865
lwrist 12.3394
lhand -37.1937 -427.249
lfingers 7.12502
lthumb -10.2615 -37.5194
rfemur -22.3686 22.4885 -2.67582
rtibia 124.484
rfoot -8.23043 0.706273
rtoes 28.3263
lfemur 23.3503 28.1219 16.7086
ltibia 111.137
lfoot -5.1588 -13.7891
ltoes -29.3052
348
root 21.6037 5.84913 -14.7976 -149.851 147.338 -55.9485
lowerback -11.8173 -9.78557 -1.20228
upperback -5.81166 -12.39 10.4142
thorax 2.99566 -5.89423 9.79731
lowerneck -14.976 -8.24104 -8.17376
upperneck -0.333694 -10.3237 22.761
head 4.20627 -4.01366 7.59855
rclavicle 1.17681e-013 -5.725e-014
rhumerus -14.0192 -56.9388 -65.7075
rradius 128.366
rwrist -15.7787
rhand -40.9609 512.967
rfingers 7.12502
rthumb -13.894 182.482
lclavicle 1.17681e-013 -5.725e-014
lhumerus 29.934 14.7214 30.3578
lradius 96.1685
lwrist 12.7267
lhand -37.3784 -427.137
lfingers 7.12502
lthumb -10.4397 -37.4161
rfemur -22.0024 22.1872 -2.26931
rtibia 124.432
rfoot -8.28235 0.443648
rtoes 27.9732
lfemur 23.8676 28.1902 17.8056
ltibia 111.825
lfoot -6.58597 -13.7296
ltoes -28.7396
349
root 21.6074 5.84251 -14.7767 -149.716 147.011 -55.758
lowerback -11.8637 -9.80941 -1.28109
upperback -5.87274 -12.407 10.4278
thorax 2.97846 -5.89968 9.85
lowerneck -14.7454 -8.31096 -7.98428
upperneck -1.09009 -10.2831 22.1789
head 3.87934 -4.07827 7.38248
rclavicle -1.47896e-013 -1.01778e-013
rhumerus -14.6666 -57.3736 -64.8987
rradius 128.471
rwrist -15.6773
rhand -40.9925 512.541
rfingers 7.12502
rthumb -13.9244 182.055
lclavicle -1.47896e-013 -1.01778e-013
lhumerus 29.6091 15.3196 30.2638
lradius 97.2745
lwrist 12.9897
lhand -37.5733 -427.013
lfingers 7.12502
lthumb -10.6277 -37.3018
rfemur -21.6446 21.9341 -1.83744
rtibia 124.389
rfoot -8.33759 0.143133
rtoes 27.7453
lfemur 24.4423 28.2043 18.7605
ltibia 112.254
lfoot -8.08442 -13.4981
ltoes -28.3642
350
root 21.609 5.83766 -14.7566 -149.579 146.744 -55.6118
lowerback -11.9433 -9.78045 -1.29103
upperback -5.95977 -12.3601 10.3747
thorax 2.90948 -5.87244 9.80273
lowerneck -14.5559 -8.40543 -7.95195
upperneck -1.51154 -10.3344 22.0562
head 3.71964 -4.14178 7.33564
rclavicle -9.54166e-015 5.40694e-014
rhumerus -15.6137 -57.8506 -63.9015
rradius 128.578
rwrist -15.5828
rhand -40.8327 512.095
rfingers 7.12502
rthumb -13.7704 181.619
lclavicle -9.54166e-015 5.40694e-014
lhumerus 29.3249 15.7574 30.107
lradius 98.3968
lwrist 13.0836
lhand -37.7318 -426.922
lfingers 7.12502
lthumb -10.7806 -37.2182
rfemur -21.3663 21.7521 -1.42684
rtibia 124.349
rfoot -8.37372 -0.144158
rtoes 27.516
lfemur 25.0061 28.2106 19.4705
ltibia 112.404
lfoot -9.56685 -13.1336
ltoes -28.4058
351
root 21.6124 5.83109 -14.7401 -149.483 146.535 -55.4703
lowerback -11.9714 -9.70324 -1.30638
upperback -6.04747 -12.2509 10.2505
thorax 2.7854 -5.81524 9.70155
lowerneck -14.4436 -8.5361 -8.12048
upperneck -1.5826 -10.4845 22.4629
head 3.74656 -4.20326 7.48299
rclavicle -8.26944e-014 -3.18055e-015
rhumerus -16.8204 -58.385 -62.7378
rradius 128.686
rwrist -15.5025
rhand -40.5668 511.795
rfingers 7.12502
rthumb -13.5141 181.337
lclavicle -8.26944e-014 -3.18055e-015
lhumerus 29.1166 16.0683 29.9202
lradius 99.5324
lwrist 12.9819
lhand -37.7973 -426.88
lfingers 7.12502
lthumb -10.8437 -37.1802
rfemur -21.1126 21.6541 -1.04535
rtibia 124.342
rfoot -8.40148 -0.383028
rtoes 27.2254
lfemur 25.5374 28.1466 19.9131
ltibia 112.318
lfoot -10.9806 -12.6974
ltoes -29.0498
352
root 21.6139 5.82627 -14.7254 -149.391 146.366 -55.3757
lowerback -12.0131 -9.59959 -1.27837
upperback -6.13832 -12.1112 10.1138
thorax 2.64848 -5.74278 9.56783
lowerneck -14.4329 -8.68421 -8.46142
upperneck -1.37875 -10.6966 23.2471
head 3.92474 -4.25524 7.77528
rclavicle -1.25632e-013 -9.54166e-015
rhumerus -18.0988 -58.9056 -61.5314
rradius 128.778
rwrist -15.4242
rhand -40.2979 511.667
rfingers 7.12502
rthumb -13.2549 181.225
lclavicle -1.25632e-013 -9.54166e-015
lhumerus 28.9254 16.3366 29.7287
lradius 100.695
lwrist 12.7176
lhand -37.6927 -426.894
lfingers 7.12502
lthumb -10.7428 -37.1888
rfemur -20.9218 21.62 -0.679842
rtibia 124.332
rfoot -8.42353 -0.534581
rtoes 26.8123
lfemur 25.963 28.0648 20.0899
ltibia 112.02
lfoot -12.2718 -12.2072
ltoes -30.2508
